<svg width="136" height="23" viewBox="0 0 136 23" fill="none" xmlns="http://www.w3.org/2000/svg">
<path fill-rule="evenodd" clip-rule="evenodd" d="M36.5742 0.25L25.0647 22.75H14.2539L19.0707 13.425H18.8545C14.8808 18.5835 8.95178 21.9794 0.503906 22.75V13.5541C0.503906 13.5541 5.90822 13.2349 9.08526 9.89469H0.503906V0.250177H10.1484V8.18265L10.3649 8.18176L14.306 0.250177H21.5999V8.13235L21.8163 8.132L25.9053 0.25H36.5742ZM99.3369 20.2665H102.443V2.4375H99.3369V20.2665ZM82.2131 20.0844C82.8881 20.3651 83.5746 20.5054 84.2725 20.5054C85.4253 20.5054 86.457 20.2248 87.3672 19.6634C88.2773 19.1022 88.9828 18.3286 89.4835 17.3424C89.9841 16.3488 90.2343 15.2223 90.2343 13.9632C90.2343 12.7041 89.9765 11.5777 89.4607 10.584C88.9448 9.59039 88.2281 8.82049 87.3102 8.27436C86.3925 7.72064 85.3495 7.44758 84.1813 7.45516C83.4381 7.45516 82.7251 7.59928 82.0424 7.88752C81.3597 8.17576 80.7908 8.58536 80.3357 9.11632C80.3006 9.15674 80.2665 9.19757 80.2333 9.23881V2.44894H77.1158V20.2666H80.2106L80.2043 18.6021C80.2843 18.7002 80.37 18.7961 80.4608 18.8898C80.9538 19.3981 81.538 19.7962 82.2131 20.0844ZM85.3988 17.2059C84.8906 17.5169 84.3103 17.6724 83.658 17.6724C83.0132 17.6724 82.4216 17.5131 81.8831 17.1946C81.3445 16.8683 80.916 16.4247 80.5973 15.8633C80.2863 15.3021 80.1308 14.6648 80.1308 13.9518C80.1233 13.2388 80.275 12.6017 80.586 12.0404C80.9046 11.4715 81.3331 11.0316 81.8717 10.7206C82.4102 10.402 83.0057 10.2465 83.658 10.2541C84.3103 10.2465 84.8906 10.3982 85.3988 10.7092C85.9146 11.0126 86.309 11.4488 86.5821 12.0176C86.8627 12.5789 87.0031 13.2237 87.0031 13.9518C87.0031 14.6801 86.8627 15.3248 86.5821 15.8861C86.309 16.4474 85.9146 16.8873 85.3988 17.2059ZM41.074 3.51843H44.6239L47.7993 15.1154L51.1775 3.51843H54.1357L57.7993 14.8827L60.8486 3.51843H64.1026L59.3012 20.2665H56.2406L52.5151 9.16453L49.0953 20.2665H46.0006L41.074 3.51843ZM69.3452 20.5623C68.1087 20.5699 66.9937 20.2968 66.0001 19.7431C65.0139 19.1818 64.2366 18.4043 63.6676 17.4106C63.1063 16.417 62.8257 15.283 62.8257 14.0086C62.8257 12.7723 63.1139 11.6535 63.6904 10.6523C64.2668 9.65102 65.0481 8.86974 66.0342 8.30844C67.0203 7.74714 68.1201 7.46649 69.3337 7.46649C70.6991 7.46649 71.8937 7.76989 72.9177 8.3767C73.9493 8.98352 74.7192 9.84444 75.2274 10.9595C75.7432 12.0669 75.9291 13.3374 75.7849 14.771H66.0391C66.0663 15.3421 66.2088 15.8618 66.4666 16.3298C66.7548 16.8455 67.1568 17.2475 67.6726 17.5358C68.1884 17.824 68.7648 17.9681 69.4021 17.9681C69.8874 17.9605 70.3388 17.8771 70.7559 17.7179C71.1732 17.551 71.5258 17.3273 71.8141 17.0465C72.1099 16.7659 72.3186 16.4474 72.4399 16.0909H75.6939C75.4967 16.9631 75.1023 17.7406 74.5107 18.4233C73.9189 19.0984 73.1757 19.6255 72.2806 20.0048C71.3856 20.384 70.4071 20.5699 69.3452 20.5623ZM66.4779 11.6421C66.2962 11.9591 66.1702 12.3004 66.1001 12.6661H72.5604C72.5136 12.2041 72.3709 11.7832 72.1327 11.4032C71.8596 10.9557 71.4879 10.6105 71.0177 10.3678C70.5474 10.1175 70.0164 9.99235 69.4248 9.99235C68.7952 9.99235 68.2226 10.1365 67.7067 10.4247C67.1909 10.7129 66.7813 11.1188 66.4779 11.6421ZM92.5217 7.7282C92.5217 6.71179 92.7529 5.80915 93.2157 5.02029C93.6783 4.22385 94.3269 3.60565 95.1613 3.16572C96.0032 2.71819 96.9855 2.48684 98.108 2.47168V5.23647C97.5847 5.24405 97.1372 5.35404 96.7655 5.56643C96.4014 5.77123 96.1208 6.07084 95.9235 6.46527C95.742 6.82839 95.644 7.24937 95.6297 7.7282H98.0398V10.3565H95.6278V20.2665H92.5217V10.3565H90.5192V7.7282H92.5217ZM110.339 20.5395C109.072 20.5395 107.938 20.2626 106.937 19.709C105.943 19.1476 105.162 18.374 104.593 17.3878C104.032 16.3942 103.751 15.2678 103.751 14.0086C103.751 12.742 104.032 11.6117 104.593 10.6181C105.162 9.61682 105.943 8.83935 106.937 8.28563C107.938 7.73191 109.072 7.45505 110.339 7.45505C111.613 7.45505 112.751 7.73191 113.752 8.28563C114.761 8.83935 115.546 9.61303 116.107 10.6067C116.668 11.6003 116.953 12.7343 116.961 14.0086C116.953 15.2678 116.668 16.3942 116.107 17.3878C115.553 18.374 114.772 19.1476 113.763 19.709C112.755 20.2626 111.613 20.5395 110.339 20.5395ZM110.339 17.6837C111.006 17.6837 111.598 17.532 112.114 17.2286C112.629 16.9176 113.028 16.4852 113.308 15.9315C113.589 15.3702 113.729 14.7292 113.729 14.0086C113.729 13.2805 113.589 12.6357 113.308 12.0744C113.028 11.5131 112.629 11.0808 112.114 10.7774C111.598 10.4664 111.006 10.3109 110.339 10.3109C109.679 10.3109 109.091 10.4664 108.575 10.7774C108.067 11.0808 107.672 11.5131 107.392 12.0744C107.111 12.6357 106.975 13.2805 106.982 14.0086C106.982 14.7292 107.123 15.3702 107.403 15.9315C107.691 16.4852 108.086 16.9176 108.586 17.2286C109.095 17.532 109.679 17.6837 110.339 17.6837ZM120.317 7.72818H116.858L120.602 20.2665H123.628L126.09 12.2583L128.748 20.2665H131.729L135.484 7.72818H132.355L130.225 15.5325L127.871 7.72818H124.845L122.503 15.7044L120.317 7.72818Z" fill="black"/>
<path d="M36.5742 0.25L25.0647 22.75H14.2539L19.0707 13.425H18.8545C14.8808 18.5835 8.95178 21.9794 0.503906 22.75V13.5541C0.503906 13.5541 5.90822 13.2349 9.08526 9.89469H0.503906V0.250177H10.1484V8.18265L10.3649 8.18176L14.306 0.250177H21.5999V8.13235L21.8163 8.132L25.9053 0.25H36.5742ZM99.3369 20.2665H102.443V2.4375H99.3369V20.2665ZM82.2131 20.0844C82.8881 20.3651 83.5746 20.5054 84.2725 20.5054C85.4253 20.5054 86.457 20.2248 87.3672 19.6634C88.2773 19.1022 88.9828 18.3286 89.4835 17.3424C89.9841 16.3488 90.2343 15.2223 90.2343 13.9632C90.2343 12.7041 89.9765 11.5777 89.4607 10.584C88.9448 9.59039 88.2281 8.82049 87.3102 8.27436C86.3925 7.72064 85.3495 7.44758 84.1813 7.45516C83.4381 7.45516 82.7251 7.59928 82.0424 7.88752C81.3597 8.17576 80.7908 8.58536 80.3357 9.11632C80.3006 9.15674 80.2665 9.19757 80.2333 9.23881V2.44894H77.1158V20.2666H80.2106L80.2043 18.6021C80.2843 18.7002 80.37 18.7961 80.4608 18.8898C80.9538 19.3981 81.538 19.7962 82.2131 20.0844ZM85.3988 17.2059C84.8906 17.5169 84.3103 17.6724 83.658 17.6724C83.0132 17.6724 82.4216 17.5131 81.8831 17.1946C81.3445 16.8683 80.916 16.4247 80.5973 15.8633C80.2863 15.3021 80.1308 14.6648 80.1308 13.9518C80.1233 13.2388 80.275 12.6017 80.586 12.0404C80.9046 11.4715 81.3331 11.0316 81.8717 10.7206C82.4102 10.402 83.0057 10.2465 83.658 10.2541C84.3103 10.2465 84.8906 10.3982 85.3988 10.7092C85.9146 11.0126 86.309 11.4488 86.5821 12.0176C86.8627 12.5789 87.0031 13.2237 87.0031 13.9518C87.0031 14.6801 86.8627 15.3248 86.5821 15.8861C86.309 16.4474 85.9146 16.8873 85.3988 17.2059ZM41.074 3.51843H44.6239L47.7993 15.1154L51.1775 3.51843H54.1357L57.7993 14.8827L60.8486 3.51843H64.1026L59.3012 20.2665H56.2406L52.5151 9.16453L49.0953 20.2665H46.0006L41.074 3.51843ZM69.3452 20.5623C68.1087 20.5699 66.9937 20.2968 66.0001 19.7431C65.0139 19.1818 64.2366 18.4043 63.6676 17.4106C63.1063 16.417 62.8257 15.283 62.8257 14.0086C62.8257 12.7723 63.1139 11.6535 63.6904 10.6523C64.2668 9.65102 65.0481 8.86974 66.0342 8.30844C67.0203 7.74714 68.1201 7.46649 69.3337 7.46649C70.6991 7.46649 71.8937 7.76989 72.9177 8.3767C73.9493 8.98352 74.7192 9.84444 75.2274 10.9595C75.7432 12.0669 75.9291 13.3374 75.7849 14.771H66.0391C66.0663 15.3421 66.2088 15.8618 66.4666 16.3298C66.7548 16.8455 67.1568 17.2475 67.6726 17.5358C68.1884 17.824 68.7648 17.9681 69.4021 17.9681C69.8874 17.9605 70.3388 17.8771 70.7559 17.7179C71.1732 17.551 71.5258 17.3273 71.8141 17.0465C72.1099 16.7659 72.3186 16.4474 72.4399 16.0909H75.6939C75.4967 16.9631 75.1023 17.7406 74.5107 18.4233C73.9189 19.0984 73.1757 19.6255 72.2806 20.0048C71.3856 20.384 70.4071 20.5699 69.3452 20.5623ZM66.4779 11.6421C66.2962 11.9591 66.1702 12.3004 66.1001 12.6661H72.5604C72.5136 12.2041 72.3709 11.7832 72.1327 11.4032C71.8596 10.9557 71.4879 10.6105 71.0177 10.3678C70.5474 10.1175 70.0164 9.99235 69.4248 9.99235C68.7952 9.99235 68.2226 10.1365 67.7067 10.4247C67.1909 10.7129 66.7813 11.1188 66.4779 11.6421ZM92.5217 7.7282C92.5217 6.71179 92.7529 5.80915 93.2157 5.02029C93.6783 4.22385 94.3269 3.60565 95.1613 3.16572C96.0032 2.71819 96.9855 2.48684 98.108 2.47168V5.23647C97.5847 5.24405 97.1372 5.35404 96.7655 5.56643C96.4014 5.77123 96.1208 6.07084 95.9235 6.46527C95.742 6.82839 95.644 7.24937 95.6297 7.7282H98.0398V10.3565H95.6278V20.2665H92.5217V10.3565H90.5192V7.7282H92.5217ZM110.339 20.5395C109.072 20.5395 107.938 20.2626 106.937 19.709C105.943 19.1476 105.162 18.374 104.593 17.3878C104.032 16.3942 103.751 15.2678 103.751 14.0086C103.751 12.742 104.032 11.6117 104.593 10.6181C105.162 9.61682 105.943 8.83935 106.937 8.28563C107.938 7.73191 109.072 7.45505 110.339 7.45505C111.613 7.45505 112.751 7.73191 113.752 8.28563C114.761 8.83935 115.546 9.61303 116.107 10.6067C116.668 11.6003 116.953 12.7343 116.961 14.0086C116.953 15.2678 116.668 16.3942 116.107 17.3878C115.553 18.374 114.772 19.1476 113.763 19.709C112.755 20.2626 111.613 20.5395 110.339 20.5395ZM110.339 17.6837C111.006 17.6837 111.598 17.532 112.114 17.2286C112.629 16.9176 113.028 16.4852 113.308 15.9315C113.589 15.3702 113.729 14.7292 113.729 14.0086C113.729 13.2805 113.589 12.6357 113.308 12.0744C113.028 11.5131 112.629 11.0808 112.114 10.7774C111.598 10.4664 111.006 10.3109 110.339 10.3109C109.679 10.3109 109.091 10.4664 108.575 10.7774C108.067 11.0808 107.672 11.5131 107.392 12.0744C107.111 12.6357 106.975 13.2805 106.982 14.0086C106.982 14.7292 107.123 15.3702 107.403 15.9315C107.691 16.4852 108.086 16.9176 108.586 17.2286C109.095 17.532 109.679 17.6837 110.339 17.6837ZM120.317 7.72818H116.858L120.602 20.2665H123.628L126.09 12.2583L128.748 20.2665H131.729L135.484 7.72818H132.355L130.225 15.5325L127.871 7.72818H124.845L122.503 15.7044L120.317 7.72818Z" fill="black"/>
<path fill-rule="evenodd" clip-rule="evenodd" d="M36.5742 0.25L25.0647 22.75H14.2539L19.0707 13.425H18.8545C14.8808 18.5835 8.95178 21.9794 0.503906 22.75V13.5541C0.503906 13.5541 5.90822 13.2349 9.08526 9.89469H0.503906V0.250177H10.1484V8.18265L10.3649 8.18176L14.306 0.250177H21.5999V8.13235L21.8163 8.132L25.9053 0.25H36.5742ZM99.3369 20.2665H102.443V2.4375H99.3369V20.2665ZM82.2131 20.0844C82.8881 20.3651 83.5746 20.5054 84.2725 20.5054C85.4253 20.5054 86.457 20.2248 87.3672 19.6634C88.2773 19.1022 88.9828 18.3286 89.4835 17.3424C89.9841 16.3488 90.2343 15.2223 90.2343 13.9632C90.2343 12.7041 89.9765 11.5777 89.4607 10.584C88.9448 9.59039 88.2281 8.82049 87.3102 8.27436C86.3925 7.72064 85.3495 7.44758 84.1813 7.45516C83.4381 7.45516 82.7251 7.59928 82.0424 7.88752C81.3597 8.17576 80.7908 8.58536 80.3357 9.11632C80.3006 9.15674 80.2665 9.19757 80.2333 9.23881V2.44894H77.1158V20.2666H80.2106L80.2043 18.6021C80.2843 18.7002 80.37 18.7961 80.4608 18.8898C80.9538 19.3981 81.538 19.7962 82.2131 20.0844ZM85.3988 17.2059C84.8906 17.5169 84.3103 17.6724 83.658 17.6724C83.0132 17.6724 82.4216 17.5131 81.8831 17.1946C81.3445 16.8683 80.916 16.4247 80.5973 15.8633C80.2863 15.3021 80.1308 14.6648 80.1308 13.9518C80.1233 13.2388 80.275 12.6017 80.586 12.0404C80.9046 11.4715 81.3331 11.0316 81.8717 10.7206C82.4102 10.402 83.0057 10.2465 83.658 10.2541C84.3103 10.2465 84.8906 10.3982 85.3988 10.7092C85.9146 11.0126 86.309 11.4488 86.5821 12.0176C86.8627 12.5789 87.0031 13.2237 87.0031 13.9518C87.0031 14.6801 86.8627 15.3248 86.5821 15.8861C86.309 16.4474 85.9146 16.8873 85.3988 17.2059ZM41.074 3.51843H44.6239L47.7993 15.1154L51.1775 3.51843H54.1357L57.7993 14.8827L60.8486 3.51843H64.1026L59.3012 20.2665H56.2406L52.5151 9.16453L49.0953 20.2665H46.0006L41.074 3.51843ZM69.3452 20.5623C68.1087 20.5699 66.9937 20.2968 66.0001 19.7431C65.0139 19.1818 64.2366 18.4043 63.6676 17.4106C63.1063 16.417 62.8257 15.283 62.8257 14.0086C62.8257 12.7723 63.1139 11.6535 63.6904 10.6523C64.2668 9.65102 65.0481 8.86974 66.0342 8.30844C67.0203 7.74714 68.1201 7.46649 69.3337 7.46649C70.6991 7.46649 71.8937 7.76989 72.9177 8.3767C73.9493 8.98352 74.7192 9.84444 75.2274 10.9595C75.7432 12.0669 75.9291 13.3374 75.7849 14.771H66.0391C66.0663 15.3421 66.2088 15.8618 66.4666 16.3298C66.7548 16.8455 67.1568 17.2475 67.6726 17.5358C68.1884 17.824 68.7648 17.9681 69.4021 17.9681C69.8874 17.9605 70.3388 17.8771 70.7559 17.7179C71.1732 17.551 71.5258 17.3273 71.8141 17.0465C72.1099 16.7659 72.3186 16.4474 72.4399 16.0909H75.6939C75.4967 16.9631 75.1023 17.7406 74.5107 18.4233C73.9189 19.0984 73.1757 19.6255 72.2806 20.0048C71.3856 20.384 70.4071 20.5699 69.3452 20.5623ZM66.4779 11.6421C66.2962 11.9591 66.1702 12.3004 66.1001 12.6661H72.5604C72.5136 12.2041 72.3709 11.7832 72.1327 11.4032C71.8596 10.9557 71.4879 10.6105 71.0177 10.3678C70.5474 10.1175 70.0164 9.99235 69.4248 9.99235C68.7952 9.99235 68.2226 10.1365 67.7067 10.4247C67.1909 10.7129 66.7813 11.1188 66.4779 11.6421ZM92.5217 7.7282C92.5217 6.71179 92.7529 5.80915 93.2157 5.02029C93.6783 4.22385 94.3269 3.60565 95.1613 3.16572C96.0032 2.71819 96.9855 2.48684 98.108 2.47168V5.23647C97.5847 5.24405 97.1372 5.35404 96.7655 5.56643C96.4014 5.77123 96.1208 6.07084 95.9235 6.46527C95.742 6.82839 95.644 7.24937 95.6297 7.7282H98.0398V10.3565H95.6278V20.2665H92.5217V10.3565H90.5192V7.7282H92.5217ZM110.339 20.5395C109.072 20.5395 107.938 20.2626 106.937 19.709C105.943 19.1476 105.162 18.374 104.593 17.3878C104.032 16.3942 103.751 15.2678 103.751 14.0086C103.751 12.742 104.032 11.6117 104.593 10.6181C105.162 9.61682 105.943 8.83935 106.937 8.28563C107.938 7.73191 109.072 7.45505 110.339 7.45505C111.613 7.45505 112.751 7.73191 113.752 8.28563C114.761 8.83935 115.546 9.61303 116.107 10.6067C116.668 11.6003 116.953 12.7343 116.961 14.0086C116.953 15.2678 116.668 16.3942 116.107 17.3878C115.553 18.374 114.772 19.1476 113.763 19.709C112.755 20.2626 111.613 20.5395 110.339 20.5395ZM110.339 17.6837C111.006 17.6837 111.598 17.532 112.114 17.2286C112.629 16.9176 113.028 16.4852 113.308 15.9315C113.589 15.3702 113.729 14.7292 113.729 14.0086C113.729 13.2805 113.589 12.6357 113.308 12.0744C113.028 11.5131 112.629 11.0808 112.114 10.7774C111.598 10.4664 111.006 10.3109 110.339 10.3109C109.679 10.3109 109.091 10.4664 108.575 10.7774C108.067 11.0808 107.672 11.5131 107.392 12.0744C107.111 12.6357 106.975 13.2805 106.982 14.0086C106.982 14.7292 107.123 15.3702 107.403 15.9315C107.691 16.4852 108.086 16.9176 108.586 17.2286C109.095 17.532 109.679 17.6837 110.339 17.6837ZM120.317 7.72818H116.858L120.602 20.2665H123.628L126.09 12.2583L128.748 20.2665H131.729L135.484 7.72818H132.355L130.225 15.5325L127.871 7.72818H124.845L122.503 15.7044L120.317 7.72818Z" fill="black"/>
<path d="M36.5742 0.25L25.0647 22.75H14.2539L19.0707 13.425H18.8545C14.8808 18.5835 8.95178 21.9794 0.503906 22.75V13.5541C0.503906 13.5541 5.90822 13.2349 9.08526 9.89469H0.503906V0.250177H10.1484V8.18265L10.3649 8.18176L14.306 0.250177H21.5999V8.13235L21.8163 8.132L25.9053 0.25H36.5742ZM99.3369 20.2665H102.443V2.4375H99.3369V20.2665ZM82.2131 20.0844C82.8881 20.3651 83.5746 20.5054 84.2725 20.5054C85.4253 20.5054 86.457 20.2248 87.3672 19.6634C88.2773 19.1022 88.9828 18.3286 89.4835 17.3424C89.9841 16.3488 90.2343 15.2223 90.2343 13.9632C90.2343 12.7041 89.9765 11.5777 89.4607 10.584C88.9448 9.59039 88.2281 8.82049 87.3102 8.27436C86.3925 7.72064 85.3495 7.44758 84.1813 7.45516C83.4381 7.45516 82.7251 7.59928 82.0424 7.88752C81.3597 8.17576 80.7908 8.58536 80.3357 9.11632C80.3006 9.15674 80.2665 9.19757 80.2333 9.23881V2.44894H77.1158V20.2666H80.2106L80.2043 18.6021C80.2843 18.7002 80.37 18.7961 80.4608 18.8898C80.9538 19.3981 81.538 19.7962 82.2131 20.0844ZM85.3988 17.2059C84.8906 17.5169 84.3103 17.6724 83.658 17.6724C83.0132 17.6724 82.4216 17.5131 81.8831 17.1946C81.3445 16.8683 80.916 16.4247 80.5973 15.8633C80.2863 15.3021 80.1308 14.6648 80.1308 13.9518C80.1233 13.2388 80.275 12.6017 80.586 12.0404C80.9046 11.4715 81.3331 11.0316 81.8717 10.7206C82.4102 10.402 83.0057 10.2465 83.658 10.2541C84.3103 10.2465 84.8906 10.3982 85.3988 10.7092C85.9146 11.0126 86.309 11.4488 86.5821 12.0176C86.8627 12.5789 87.0031 13.2237 87.0031 13.9518C87.0031 14.6801 86.8627 15.3248 86.5821 15.8861C86.309 16.4474 85.9146 16.8873 85.3988 17.2059ZM41.074 3.51843H44.6239L47.7993 15.1154L51.1775 3.51843H54.1357L57.7993 14.8827L60.8486 3.51843H64.1026L59.3012 20.2665H56.2406L52.5151 9.16453L49.0953 20.2665H46.0006L41.074 3.51843ZM69.3452 20.5623C68.1087 20.5699 66.9937 20.2968 66.0001 19.7431C65.0139 19.1818 64.2366 18.4043 63.6676 17.4106C63.1063 16.417 62.8257 15.283 62.8257 14.0086C62.8257 12.7723 63.1139 11.6535 63.6904 10.6523C64.2668 9.65102 65.0481 8.86974 66.0342 8.30844C67.0203 7.74714 68.1201 7.46649 69.3337 7.46649C70.6991 7.46649 71.8937 7.76989 72.9177 8.3767C73.9493 8.98352 74.7192 9.84444 75.2274 10.9595C75.7432 12.0669 75.9291 13.3374 75.7849 14.771H66.0391C66.0663 15.3421 66.2088 15.8618 66.4666 16.3298C66.7548 16.8455 67.1568 17.2475 67.6726 17.5358C68.1884 17.824 68.7648 17.9681 69.4021 17.9681C69.8874 17.9605 70.3388 17.8771 70.7559 17.7179C71.1732 17.551 71.5258 17.3273 71.8141 17.0465C72.1099 16.7659 72.3186 16.4474 72.4399 16.0909H75.6939C75.4967 16.9631 75.1023 17.7406 74.5107 18.4233C73.9189 19.0984 73.1757 19.6255 72.2806 20.0048C71.3856 20.384 70.4071 20.5699 69.3452 20.5623ZM66.4779 11.6421C66.2962 11.9591 66.1702 12.3004 66.1001 12.6661H72.5604C72.5136 12.2041 72.3709 11.7832 72.1327 11.4032C71.8596 10.9557 71.4879 10.6105 71.0177 10.3678C70.5474 10.1175 70.0164 9.99235 69.4248 9.99235C68.7952 9.99235 68.2226 10.1365 67.7067 10.4247C67.1909 10.7129 66.7813 11.1188 66.4779 11.6421ZM92.5217 7.7282C92.5217 6.71179 92.7529 5.80915 93.2157 5.02029C93.6783 4.22385 94.3269 3.60565 95.1613 3.16572C96.0032 2.71819 96.9855 2.48684 98.108 2.47168V5.23647C97.5847 5.24405 97.1372 5.35404 96.7655 5.56643C96.4014 5.77123 96.1208 6.07084 95.9235 6.46527C95.742 6.82839 95.644 7.24937 95.6297 7.7282H98.0398V10.3565H95.6278V20.2665H92.5217V10.3565H90.5192V7.7282H92.5217ZM110.339 20.5395C109.072 20.5395 107.938 20.2626 106.937 19.709C105.943 19.1476 105.162 18.374 104.593 17.3878C104.032 16.3942 103.751 15.2678 103.751 14.0086C103.751 12.742 104.032 11.6117 104.593 10.6181C105.162 9.61682 105.943 8.83935 106.937 8.28563C107.938 7.73191 109.072 7.45505 110.339 7.45505C111.613 7.45505 112.751 7.73191 113.752 8.28563C114.761 8.83935 115.546 9.61303 116.107 10.6067C116.668 11.6003 116.953 12.7343 116.961 14.0086C116.953 15.2678 116.668 16.3942 116.107 17.3878C115.553 18.374 114.772 19.1476 113.763 19.709C112.755 20.2626 111.613 20.5395 110.339 20.5395ZM110.339 17.6837C111.006 17.6837 111.598 17.532 112.114 17.2286C112.629 16.9176 113.028 16.4852 113.308 15.9315C113.589 15.3702 113.729 14.7292 113.729 14.0086C113.729 13.2805 113.589 12.6357 113.308 12.0744C113.028 11.5131 112.629 11.0808 112.114 10.7774C111.598 10.4664 111.006 10.3109 110.339 10.3109C109.679 10.3109 109.091 10.4664 108.575 10.7774C108.067 11.0808 107.672 11.5131 107.392 12.0744C107.111 12.6357 106.975 13.2805 106.982 14.0086C106.982 14.7292 107.123 15.3702 107.403 15.9315C107.691 16.4852 108.086 16.9176 108.586 17.2286C109.095 17.532 109.679 17.6837 110.339 17.6837ZM120.317 7.72818H116.858L120.602 20.2665H123.628L126.09 12.2583L128.748 20.2665H131.729L135.484 7.72818H132.355L130.225 15.5325L127.871 7.72818H124.845L122.503 15.7044L120.317 7.72818Z" fill="black"/>
<path fill-rule="evenodd" clip-rule="evenodd" d="M36.5742 0.25L25.0647 22.75H14.2539L19.0707 13.425H18.8545C14.8808 18.5835 8.95178 21.9794 0.503906 22.75V13.5541C0.503906 13.5541 5.90822 13.2349 9.08526 9.89469H0.503906V0.250177H10.1484V8.18265L10.3649 8.18176L14.306 0.250177H21.5999V8.13235L21.8163 8.132L25.9053 0.25H36.5742ZM99.3369 20.2665H102.443V2.4375H99.3369V20.2665ZM82.2131 20.0844C82.8881 20.3651 83.5746 20.5054 84.2725 20.5054C85.4253 20.5054 86.457 20.2248 87.3672 19.6634C88.2773 19.1022 88.9828 18.3286 89.4835 17.3424C89.9841 16.3488 90.2343 15.2223 90.2343 13.9632C90.2343 12.7041 89.9765 11.5777 89.4607 10.584C88.9448 9.59039 88.2281 8.82049 87.3102 8.27436C86.3925 7.72064 85.3495 7.44758 84.1813 7.45516C83.4381 7.45516 82.7251 7.59928 82.0424 7.88752C81.3597 8.17576 80.7908 8.58536 80.3357 9.11632C80.3006 9.15674 80.2665 9.19757 80.2333 9.23881V2.44894H77.1158V20.2666H80.2106L80.2043 18.6021C80.2843 18.7002 80.37 18.7961 80.4608 18.8898C80.9538 19.3981 81.538 19.7962 82.2131 20.0844ZM85.3988 17.2059C84.8906 17.5169 84.3103 17.6724 83.658 17.6724C83.0132 17.6724 82.4216 17.5131 81.8831 17.1946C81.3445 16.8683 80.916 16.4247 80.5973 15.8633C80.2863 15.3021 80.1308 14.6648 80.1308 13.9518C80.1233 13.2388 80.275 12.6017 80.586 12.0404C80.9046 11.4715 81.3331 11.0316 81.8717 10.7206C82.4102 10.402 83.0057 10.2465 83.658 10.2541C84.3103 10.2465 84.8906 10.3982 85.3988 10.7092C85.9146 11.0126 86.309 11.4488 86.5821 12.0176C86.8627 12.5789 87.0031 13.2237 87.0031 13.9518C87.0031 14.6801 86.8627 15.3248 86.5821 15.8861C86.309 16.4474 85.9146 16.8873 85.3988 17.2059ZM41.074 3.51843H44.6239L47.7993 15.1154L51.1775 3.51843H54.1357L57.7993 14.8827L60.8486 3.51843H64.1026L59.3012 20.2665H56.2406L52.5151 9.16453L49.0953 20.2665H46.0006L41.074 3.51843ZM69.3452 20.5623C68.1087 20.5699 66.9937 20.2968 66.0001 19.7431C65.0139 19.1818 64.2366 18.4043 63.6676 17.4106C63.1063 16.417 62.8257 15.283 62.8257 14.0086C62.8257 12.7723 63.1139 11.6535 63.6904 10.6523C64.2668 9.65102 65.0481 8.86974 66.0342 8.30844C67.0203 7.74714 68.1201 7.46649 69.3337 7.46649C70.6991 7.46649 71.8937 7.76989 72.9177 8.3767C73.9493 8.98352 74.7192 9.84444 75.2274 10.9595C75.7432 12.0669 75.9291 13.3374 75.7849 14.771H66.0391C66.0663 15.3421 66.2088 15.8618 66.4666 16.3298C66.7548 16.8455 67.1568 17.2475 67.6726 17.5358C68.1884 17.824 68.7648 17.9681 69.4021 17.9681C69.8874 17.9605 70.3388 17.8771 70.7559 17.7179C71.1732 17.551 71.5258 17.3273 71.8141 17.0465C72.1099 16.7659 72.3186 16.4474 72.4399 16.0909H75.6939C75.4967 16.9631 75.1023 17.7406 74.5107 18.4233C73.9189 19.0984 73.1757 19.6255 72.2806 20.0048C71.3856 20.384 70.4071 20.5699 69.3452 20.5623ZM66.4779 11.6421C66.2962 11.9591 66.1702 12.3004 66.1001 12.6661H72.5604C72.5136 12.2041 72.3709 11.7832 72.1327 11.4032C71.8596 10.9557 71.4879 10.6105 71.0177 10.3678C70.5474 10.1175 70.0164 9.99235 69.4248 9.99235C68.7952 9.99235 68.2226 10.1365 67.7067 10.4247C67.1909 10.7129 66.7813 11.1188 66.4779 11.6421ZM92.5217 7.7282C92.5217 6.71179 92.7529 5.80915 93.2157 5.02029C93.6783 4.22385 94.3269 3.60565 95.1613 3.16572C96.0032 2.71819 96.9855 2.48684 98.108 2.47168V5.23647C97.5847 5.24405 97.1372 5.35404 96.7655 5.56643C96.4014 5.77123 96.1208 6.07084 95.9235 6.46527C95.742 6.82839 95.644 7.24937 95.6297 7.7282H98.0398V10.3565H95.6278V20.2665H92.5217V10.3565H90.5192V7.7282H92.5217ZM110.339 20.5395C109.072 20.5395 107.938 20.2626 106.937 19.709C105.943 19.1476 105.162 18.374 104.593 17.3878C104.032 16.3942 103.751 15.2678 103.751 14.0086C103.751 12.742 104.032 11.6117 104.593 10.6181C105.162 9.61682 105.943 8.83935 106.937 8.28563C107.938 7.73191 109.072 7.45505 110.339 7.45505C111.613 7.45505 112.751 7.73191 113.752 8.28563C114.761 8.83935 115.546 9.61303 116.107 10.6067C116.668 11.6003 116.953 12.7343 116.961 14.0086C116.953 15.2678 116.668 16.3942 116.107 17.3878C115.553 18.374 114.772 19.1476 113.763 19.709C112.755 20.2626 111.613 20.5395 110.339 20.5395ZM110.339 17.6837C111.006 17.6837 111.598 17.532 112.114 17.2286C112.629 16.9176 113.028 16.4852 113.308 15.9315C113.589 15.3702 113.729 14.7292 113.729 14.0086C113.729 13.2805 113.589 12.6357 113.308 12.0744C113.028 11.5131 112.629 11.0808 112.114 10.7774C111.598 10.4664 111.006 10.3109 110.339 10.3109C109.679 10.3109 109.091 10.4664 108.575 10.7774C108.067 11.0808 107.672 11.5131 107.392 12.0744C107.111 12.6357 106.975 13.2805 106.982 14.0086C106.982 14.7292 107.123 15.3702 107.403 15.9315C107.691 16.4852 108.086 16.9176 108.586 17.2286C109.095 17.532 109.679 17.6837 110.339 17.6837ZM120.317 7.72818H116.858L120.602 20.2665H123.628L126.09 12.2583L128.748 20.2665H131.729L135.484 7.72818H132.355L130.225 15.5325L127.871 7.72818H124.845L122.503 15.7044L120.317 7.72818Z" fill="black"/>
<path d="M36.5742 0.25L25.0647 22.75H14.2539L19.0707 13.425H18.8545C14.8808 18.5835 8.95178 21.9794 0.503906 22.75V13.5541C0.503906 13.5541 5.90822 13.2349 9.08526 9.89469H0.503906V0.250177H10.1484V8.18265L10.3649 8.18176L14.306 0.250177H21.5999V8.13235L21.8163 8.132L25.9053 0.25H36.5742ZM99.3369 20.2665H102.443V2.4375H99.3369V20.2665ZM82.2131 20.0844C82.8881 20.3651 83.5746 20.5054 84.2725 20.5054C85.4253 20.5054 86.457 20.2248 87.3672 19.6634C88.2773 19.1022 88.9828 18.3286 89.4835 17.3424C89.9841 16.3488 90.2343 15.2223 90.2343 13.9632C90.2343 12.7041 89.9765 11.5777 89.4607 10.584C88.9448 9.59039 88.2281 8.82049 87.3102 8.27436C86.3925 7.72064 85.3495 7.44758 84.1813 7.45516C83.4381 7.45516 82.7251 7.59928 82.0424 7.88752C81.3597 8.17576 80.7908 8.58536 80.3357 9.11632C80.3006 9.15674 80.2665 9.19757 80.2333 9.23881V2.44894H77.1158V20.2666H80.2106L80.2043 18.6021C80.2843 18.7002 80.37 18.7961 80.4608 18.8898C80.9538 19.3981 81.538 19.7962 82.2131 20.0844ZM85.3988 17.2059C84.8906 17.5169 84.3103 17.6724 83.658 17.6724C83.0132 17.6724 82.4216 17.5131 81.8831 17.1946C81.3445 16.8683 80.916 16.4247 80.5973 15.8633C80.2863 15.3021 80.1308 14.6648 80.1308 13.9518C80.1233 13.2388 80.275 12.6017 80.586 12.0404C80.9046 11.4715 81.3331 11.0316 81.8717 10.7206C82.4102 10.402 83.0057 10.2465 83.658 10.2541C84.3103 10.2465 84.8906 10.3982 85.3988 10.7092C85.9146 11.0126 86.309 11.4488 86.5821 12.0176C86.8627 12.5789 87.0031 13.2237 87.0031 13.9518C87.0031 14.6801 86.8627 15.3248 86.5821 15.8861C86.309 16.4474 85.9146 16.8873 85.3988 17.2059ZM41.074 3.51843H44.6239L47.7993 15.1154L51.1775 3.51843H54.1357L57.7993 14.8827L60.8486 3.51843H64.1026L59.3012 20.2665H56.2406L52.5151 9.16453L49.0953 20.2665H46.0006L41.074 3.51843ZM69.3452 20.5623C68.1087 20.5699 66.9937 20.2968 66.0001 19.7431C65.0139 19.1818 64.2366 18.4043 63.6676 17.4106C63.1063 16.417 62.8257 15.283 62.8257 14.0086C62.8257 12.7723 63.1139 11.6535 63.6904 10.6523C64.2668 9.65102 65.0481 8.86974 66.0342 8.30844C67.0203 7.74714 68.1201 7.46649 69.3337 7.46649C70.6991 7.46649 71.8937 7.76989 72.9177 8.3767C73.9493 8.98352 74.7192 9.84444 75.2274 10.9595C75.7432 12.0669 75.9291 13.3374 75.7849 14.771H66.0391C66.0663 15.3421 66.2088 15.8618 66.4666 16.3298C66.7548 16.8455 67.1568 17.2475 67.6726 17.5358C68.1884 17.824 68.7648 17.9681 69.4021 17.9681C69.8874 17.9605 70.3388 17.8771 70.7559 17.7179C71.1732 17.551 71.5258 17.3273 71.8141 17.0465C72.1099 16.7659 72.3186 16.4474 72.4399 16.0909H75.6939C75.4967 16.9631 75.1023 17.7406 74.5107 18.4233C73.9189 19.0984 73.1757 19.6255 72.2806 20.0048C71.3856 20.384 70.4071 20.5699 69.3452 20.5623ZM66.4779 11.6421C66.2962 11.9591 66.1702 12.3004 66.1001 12.6661H72.5604C72.5136 12.2041 72.3709 11.7832 72.1327 11.4032C71.8596 10.9557 71.4879 10.6105 71.0177 10.3678C70.5474 10.1175 70.0164 9.99235 69.4248 9.99235C68.7952 9.99235 68.2226 10.1365 67.7067 10.4247C67.1909 10.7129 66.7813 11.1188 66.4779 11.6421ZM92.5217 7.7282C92.5217 6.71179 92.7529 5.80915 93.2157 5.02029C93.6783 4.22385 94.3269 3.60565 95.1613 3.16572C96.0032 2.71819 96.9855 2.48684 98.108 2.47168V5.23647C97.5847 5.24405 97.1372 5.35404 96.7655 5.56643C96.4014 5.77123 96.1208 6.07084 95.9235 6.46527C95.742 6.82839 95.644 7.24937 95.6297 7.7282H98.0398V10.3565H95.6278V20.2665H92.5217V10.3565H90.5192V7.7282H92.5217ZM110.339 20.5395C109.072 20.5395 107.938 20.2626 106.937 19.709C105.943 19.1476 105.162 18.374 104.593 17.3878C104.032 16.3942 103.751 15.2678 103.751 14.0086C103.751 12.742 104.032 11.6117 104.593 10.6181C105.162 9.61682 105.943 8.83935 106.937 8.28563C107.938 7.73191 109.072 7.45505 110.339 7.45505C111.613 7.45505 112.751 7.73191 113.752 8.28563C114.761 8.83935 115.546 9.61303 116.107 10.6067C116.668 11.6003 116.953 12.7343 116.961 14.0086C116.953 15.2678 116.668 16.3942 116.107 17.3878C115.553 18.374 114.772 19.1476 113.763 19.709C112.755 20.2626 111.613 20.5395 110.339 20.5395ZM110.339 17.6837C111.006 17.6837 111.598 17.532 112.114 17.2286C112.629 16.9176 113.028 16.4852 113.308 15.9315C113.589 15.3702 113.729 14.7292 113.729 14.0086C113.729 13.2805 113.589 12.6357 113.308 12.0744C113.028 11.5131 112.629 11.0808 112.114 10.7774C111.598 10.4664 111.006 10.3109 110.339 10.3109C109.679 10.3109 109.091 10.4664 108.575 10.7774C108.067 11.0808 107.672 11.5131 107.392 12.0744C107.111 12.6357 106.975 13.2805 106.982 14.0086C106.982 14.7292 107.123 15.3702 107.403 15.9315C107.691 16.4852 108.086 16.9176 108.586 17.2286C109.095 17.532 109.679 17.6837 110.339 17.6837ZM120.317 7.72818H116.858L120.602 20.2665H123.628L126.09 12.2583L128.748 20.2665H131.729L135.484 7.72818H132.355L130.225 15.5325L127.871 7.72818H124.845L122.503 15.7044L120.317 7.72818Z" fill="black"/>
<path fill-rule="evenodd" clip-rule="evenodd" d="M36.5742 0.25L25.0647 22.75H14.2539L19.0707 13.425H18.8545C14.8808 18.5835 8.95178 21.9794 0.503906 22.75V13.5541C0.503906 13.5541 5.90822 13.2349 9.08526 9.89469H0.503906V0.250177H10.1484V8.18265L10.3649 8.18176L14.306 0.250177H21.5999V8.13235L21.8163 8.132L25.9053 0.25H36.5742ZM99.3369 20.2665H102.443V2.4375H99.3369V20.2665ZM82.2131 20.0844C82.8881 20.3651 83.5746 20.5054 84.2725 20.5054C85.4253 20.5054 86.457 20.2248 87.3672 19.6634C88.2773 19.1022 88.9828 18.3286 89.4835 17.3424C89.9841 16.3488 90.2343 15.2223 90.2343 13.9632C90.2343 12.7041 89.9765 11.5777 89.4607 10.584C88.9448 9.59039 88.2281 8.82049 87.3102 8.27436C86.3925 7.72064 85.3495 7.44758 84.1813 7.45516C83.4381 7.45516 82.7251 7.59928 82.0424 7.88752C81.3597 8.17576 80.7908 8.58536 80.3357 9.11632C80.3006 9.15674 80.2665 9.19757 80.2333 9.23881V2.44894H77.1158V20.2666H80.2106L80.2043 18.6021C80.2843 18.7002 80.37 18.7961 80.4608 18.8898C80.9538 19.3981 81.538 19.7962 82.2131 20.0844ZM85.3988 17.2059C84.8906 17.5169 84.3103 17.6724 83.658 17.6724C83.0132 17.6724 82.4216 17.5131 81.8831 17.1946C81.3445 16.8683 80.916 16.4247 80.5973 15.8633C80.2863 15.3021 80.1308 14.6648 80.1308 13.9518C80.1233 13.2388 80.275 12.6017 80.586 12.0404C80.9046 11.4715 81.3331 11.0316 81.8717 10.7206C82.4102 10.402 83.0057 10.2465 83.658 10.2541C84.3103 10.2465 84.8906 10.3982 85.3988 10.7092C85.9146 11.0126 86.309 11.4488 86.5821 12.0176C86.8627 12.5789 87.0031 13.2237 87.0031 13.9518C87.0031 14.6801 86.8627 15.3248 86.5821 15.8861C86.309 16.4474 85.9146 16.8873 85.3988 17.2059ZM41.074 3.51843H44.6239L47.7993 15.1154L51.1775 3.51843H54.1357L57.7993 14.8827L60.8486 3.51843H64.1026L59.3012 20.2665H56.2406L52.5151 9.16453L49.0953 20.2665H46.0006L41.074 3.51843ZM69.3452 20.5623C68.1087 20.5699 66.9937 20.2968 66.0001 19.7431C65.0139 19.1818 64.2366 18.4043 63.6676 17.4106C63.1063 16.417 62.8257 15.283 62.8257 14.0086C62.8257 12.7723 63.1139 11.6535 63.6904 10.6523C64.2668 9.65102 65.0481 8.86974 66.0342 8.30844C67.0203 7.74714 68.1201 7.46649 69.3337 7.46649C70.6991 7.46649 71.8937 7.76989 72.9177 8.3767C73.9493 8.98352 74.7192 9.84444 75.2274 10.9595C75.7432 12.0669 75.9291 13.3374 75.7849 14.771H66.0391C66.0663 15.3421 66.2088 15.8618 66.4666 16.3298C66.7548 16.8455 67.1568 17.2475 67.6726 17.5358C68.1884 17.824 68.7648 17.9681 69.4021 17.9681C69.8874 17.9605 70.3388 17.8771 70.7559 17.7179C71.1732 17.551 71.5258 17.3273 71.8141 17.0465C72.1099 16.7659 72.3186 16.4474 72.4399 16.0909H75.6939C75.4967 16.9631 75.1023 17.7406 74.5107 18.4233C73.9189 19.0984 73.1757 19.6255 72.2806 20.0048C71.3856 20.384 70.4071 20.5699 69.3452 20.5623ZM66.4779 11.6421C66.2962 11.9591 66.1702 12.3004 66.1001 12.6661H72.5604C72.5136 12.2041 72.3709 11.7832 72.1327 11.4032C71.8596 10.9557 71.4879 10.6105 71.0177 10.3678C70.5474 10.1175 70.0164 9.99235 69.4248 9.99235C68.7952 9.99235 68.2226 10.1365 67.7067 10.4247C67.1909 10.7129 66.7813 11.1188 66.4779 11.6421ZM92.5217 7.7282C92.5217 6.71179 92.7529 5.80915 93.2157 5.02029C93.6783 4.22385 94.3269 3.60565 95.1613 3.16572C96.0032 2.71819 96.9855 2.48684 98.108 2.47168V5.23647C97.5847 5.24405 97.1372 5.35404 96.7655 5.56643C96.4014 5.77123 96.1208 6.07084 95.9235 6.46527C95.742 6.82839 95.644 7.24937 95.6297 7.7282H98.0398V10.3565H95.6278V20.2665H92.5217V10.3565H90.5192V7.7282H92.5217ZM110.339 20.5395C109.072 20.5395 107.938 20.2626 106.937 19.709C105.943 19.1476 105.162 18.374 104.593 17.3878C104.032 16.3942 103.751 15.2678 103.751 14.0086C103.751 12.742 104.032 11.6117 104.593 10.6181C105.162 9.61682 105.943 8.83935 106.937 8.28563C107.938 7.73191 109.072 7.45505 110.339 7.45505C111.613 7.45505 112.751 7.73191 113.752 8.28563C114.761 8.83935 115.546 9.61303 116.107 10.6067C116.668 11.6003 116.953 12.7343 116.961 14.0086C116.953 15.2678 116.668 16.3942 116.107 17.3878C115.553 18.374 114.772 19.1476 113.763 19.709C112.755 20.2626 111.613 20.5395 110.339 20.5395ZM110.339 17.6837C111.006 17.6837 111.598 17.532 112.114 17.2286C112.629 16.9176 113.028 16.4852 113.308 15.9315C113.589 15.3702 113.729 14.7292 113.729 14.0086C113.729 13.2805 113.589 12.6357 113.308 12.0744C113.028 11.5131 112.629 11.0808 112.114 10.7774C111.598 10.4664 111.006 10.3109 110.339 10.3109C109.679 10.3109 109.091 10.4664 108.575 10.7774C108.067 11.0808 107.672 11.5131 107.392 12.0744C107.111 12.6357 106.975 13.2805 106.982 14.0086C106.982 14.7292 107.123 15.3702 107.403 15.9315C107.691 16.4852 108.086 16.9176 108.586 17.2286C109.095 17.532 109.679 17.6837 110.339 17.6837ZM120.317 7.72818H116.858L120.602 20.2665H123.628L126.09 12.2583L128.748 20.2665H131.729L135.484 7.72818H132.355L130.225 15.5325L127.871 7.72818H124.845L122.503 15.7044L120.317 7.72818Z" fill="black"/>
<path d="M36.5742 0.25L25.0647 22.75H14.2539L19.0707 13.425H18.8545C14.8808 18.5835 8.95178 21.9794 0.503906 22.75V13.5541C0.503906 13.5541 5.90822 13.2349 9.08526 9.89469H0.503906V0.250177H10.1484V8.18265L10.3649 8.18176L14.306 0.250177H21.5999V8.13235L21.8163 8.132L25.9053 0.25H36.5742ZM99.3369 20.2665H102.443V2.4375H99.3369V20.2665ZM82.2131 20.0844C82.8881 20.3651 83.5746 20.5054 84.2725 20.5054C85.4253 20.5054 86.457 20.2248 87.3672 19.6634C88.2773 19.1022 88.9828 18.3286 89.4835 17.3424C89.9841 16.3488 90.2343 15.2223 90.2343 13.9632C90.2343 12.7041 89.9765 11.5777 89.4607 10.584C88.9448 9.59039 88.2281 8.82049 87.3102 8.27436C86.3925 7.72064 85.3495 7.44758 84.1813 7.45516C83.4381 7.45516 82.7251 7.59928 82.0424 7.88752C81.3597 8.17576 80.7908 8.58536 80.3357 9.11632C80.3006 9.15674 80.2665 9.19757 80.2333 9.23881V2.44894H77.1158V20.2666H80.2106L80.2043 18.6021C80.2843 18.7002 80.37 18.7961 80.4608 18.8898C80.9538 19.3981 81.538 19.7962 82.2131 20.0844ZM85.3988 17.2059C84.8906 17.5169 84.3103 17.6724 83.658 17.6724C83.0132 17.6724 82.4216 17.5131 81.8831 17.1946C81.3445 16.8683 80.916 16.4247 80.5973 15.8633C80.2863 15.3021 80.1308 14.6648 80.1308 13.9518C80.1233 13.2388 80.275 12.6017 80.586 12.0404C80.9046 11.4715 81.3331 11.0316 81.8717 10.7206C82.4102 10.402 83.0057 10.2465 83.658 10.2541C84.3103 10.2465 84.8906 10.3982 85.3988 10.7092C85.9146 11.0126 86.309 11.4488 86.5821 12.0176C86.8627 12.5789 87.0031 13.2237 87.0031 13.9518C87.0031 14.6801 86.8627 15.3248 86.5821 15.8861C86.309 16.4474 85.9146 16.8873 85.3988 17.2059ZM41.074 3.51843H44.6239L47.7993 15.1154L51.1775 3.51843H54.1357L57.7993 14.8827L60.8486 3.51843H64.1026L59.3012 20.2665H56.2406L52.5151 9.16453L49.0953 20.2665H46.0006L41.074 3.51843ZM69.3452 20.5623C68.1087 20.5699 66.9937 20.2968 66.0001 19.7431C65.0139 19.1818 64.2366 18.4043 63.6676 17.4106C63.1063 16.417 62.8257 15.283 62.8257 14.0086C62.8257 12.7723 63.1139 11.6535 63.6904 10.6523C64.2668 9.65102 65.0481 8.86974 66.0342 8.30844C67.0203 7.74714 68.1201 7.46649 69.3337 7.46649C70.6991 7.46649 71.8937 7.76989 72.9177 8.3767C73.9493 8.98352 74.7192 9.84444 75.2274 10.9595C75.7432 12.0669 75.9291 13.3374 75.7849 14.771H66.0391C66.0663 15.3421 66.2088 15.8618 66.4666 16.3298C66.7548 16.8455 67.1568 17.2475 67.6726 17.5358C68.1884 17.824 68.7648 17.9681 69.4021 17.9681C69.8874 17.9605 70.3388 17.8771 70.7559 17.7179C71.1732 17.551 71.5258 17.3273 71.8141 17.0465C72.1099 16.7659 72.3186 16.4474 72.4399 16.0909H75.6939C75.4967 16.9631 75.1023 17.7406 74.5107 18.4233C73.9189 19.0984 73.1757 19.6255 72.2806 20.0048C71.3856 20.384 70.4071 20.5699 69.3452 20.5623ZM66.4779 11.6421C66.2962 11.9591 66.1702 12.3004 66.1001 12.6661H72.5604C72.5136 12.2041 72.3709 11.7832 72.1327 11.4032C71.8596 10.9557 71.4879 10.6105 71.0177 10.3678C70.5474 10.1175 70.0164 9.99235 69.4248 9.99235C68.7952 9.99235 68.2226 10.1365 67.7067 10.4247C67.1909 10.7129 66.7813 11.1188 66.4779 11.6421ZM92.5217 7.7282C92.5217 6.71179 92.7529 5.80915 93.2157 5.02029C93.6783 4.22385 94.3269 3.60565 95.1613 3.16572C96.0032 2.71819 96.9855 2.48684 98.108 2.47168V5.23647C97.5847 5.24405 97.1372 5.35404 96.7655 5.56643C96.4014 5.77123 96.1208 6.07084 95.9235 6.46527C95.742 6.82839 95.644 7.24937 95.6297 7.7282H98.0398V10.3565H95.6278V20.2665H92.5217V10.3565H90.5192V7.7282H92.5217ZM110.339 20.5395C109.072 20.5395 107.938 20.2626 106.937 19.709C105.943 19.1476 105.162 18.374 104.593 17.3878C104.032 16.3942 103.751 15.2678 103.751 14.0086C103.751 12.742 104.032 11.6117 104.593 10.6181C105.162 9.61682 105.943 8.83935 106.937 8.28563C107.938 7.73191 109.072 7.45505 110.339 7.45505C111.613 7.45505 112.751 7.73191 113.752 8.28563C114.761 8.83935 115.546 9.61303 116.107 10.6067C116.668 11.6003 116.953 12.7343 116.961 14.0086C116.953 15.2678 116.668 16.3942 116.107 17.3878C115.553 18.374 114.772 19.1476 113.763 19.709C112.755 20.2626 111.613 20.5395 110.339 20.5395ZM110.339 17.6837C111.006 17.6837 111.598 17.532 112.114 17.2286C112.629 16.9176 113.028 16.4852 113.308 15.9315C113.589 15.3702 113.729 14.7292 113.729 14.0086C113.729 13.2805 113.589 12.6357 113.308 12.0744C113.028 11.5131 112.629 11.0808 112.114 10.7774C111.598 10.4664 111.006 10.3109 110.339 10.3109C109.679 10.3109 109.091 10.4664 108.575 10.7774C108.067 11.0808 107.672 11.5131 107.392 12.0744C107.111 12.6357 106.975 13.2805 106.982 14.0086C106.982 14.7292 107.123 15.3702 107.403 15.9315C107.691 16.4852 108.086 16.9176 108.586 17.2286C109.095 17.532 109.679 17.6837 110.339 17.6837ZM120.317 7.72818H116.858L120.602 20.2665H123.628L126.09 12.2583L128.748 20.2665H131.729L135.484 7.72818H132.355L130.225 15.5325L127.871 7.72818H124.845L122.503 15.7044L120.317 7.72818Z" fill="black"/>
</svg>
