<svg width="133" height="36" viewBox="0 0 133 36" fill="none" xmlns="http://www.w3.org/2000/svg">
<path fill-rule="evenodd" clip-rule="evenodd" d="M31.5537 8.73552L31.8048 9.18396C32.121 9.7289 32.2881 10.3476 32.2891 10.9776V24.8791C32.284 25.5086 32.1172 26.1262 31.8048 26.6728L31.5357 27.1213C31.2285 27.6703 30.7753 28.1234 30.2264 28.4307L18.1904 35.3903C17.6454 35.7065 17.0267 35.8735 16.3967 35.8747H15.8944C15.2635 35.8806 14.643 35.713 14.1007 35.3903L2.04681 28.4487C1.50956 28.1261 1.05988 27.6765 0.737387 27.1392L0.486263 26.6908C0.17011 26.1457 0.00307312 25.5271 0.00195312 24.897V10.9955C0.00307312 10.3656 0.17011 9.74684 0.486263 9.20189L0.737387 8.75346C1.05175 8.20991 1.50326 7.75832 2.04681 7.44403L14.0827 0.48431C14.6278 0.168174 15.2464 0.00113749 15.8765 0H16.3967C17.0267 0.00113749 17.6454 0.168174 18.1904 0.48431L30.2264 7.42609C30.773 7.74249 31.2298 8.1932 31.5537 8.73552ZM16.3967 3.58739H15.8765L5.38318 9.65024L16.1455 15.8565L26.908 9.65024L16.3967 3.58739ZM28.4326 25.3276L17.9393 31.3905V18.9778L28.7016 12.7536V24.8792L28.4326 25.3276ZM79.0652 26.5475H75.3457V6.91687H79.0652V26.5475ZM45.502 26.9683H49.6605V19.8392H51.4686L55.8855 26.9683H60.3282L55.4465 19.1161C57.6162 18.4703 59.2434 16.998 59.2434 14.2084V14.105C59.2434 10.2823 56.4797 8.5 52.1144 8.5H45.502V26.9683ZM49.6605 16.998V11.7029H52.011C54.0258 11.7029 55.1623 12.3487 55.1623 14.2342V14.3375C55.1623 16.1198 54.1033 16.998 52.011 16.998H49.6605ZM67.0825 26.8309C70.7762 26.8309 73.1008 25.2037 73.5399 22.2849H70.0013C69.7688 23.4214 68.9164 24.1705 67.1859 24.1705C65.1453 24.1705 63.9313 22.879 63.828 20.6318H73.5658V19.5986C73.5658 14.7684 70.4662 12.7279 66.9792 12.7279C63.0531 12.7279 60.0309 15.4917 60.0309 19.7536V19.9602C60.0309 24.2738 63.0014 26.8309 67.0825 26.8309ZM63.8796 18.333C64.1637 16.4215 65.3003 15.3109 66.9792 15.3109C68.7615 15.3109 69.7947 16.2924 69.9238 18.333H63.8796ZM86.2004 26.832C88.422 26.832 89.7905 25.7988 90.4879 24.4299V26.5479H94.2075V13.0389H90.4879V20.9687C90.4879 22.9576 89.248 23.9391 87.673 23.9391C86.0718 23.9391 85.3219 23.0609 85.3219 21.227V13.0389H81.6028V21.7436C81.6028 25.2822 83.5658 26.832 86.2004 26.832ZM100.493 26.5468H96.7468V13.0378H100.493V15.1042C101.164 13.8385 102.61 12.7279 104.625 12.7279C106.408 12.7279 107.751 13.477 108.396 15.0784C109.481 13.4511 111.238 12.7279 112.942 12.7279C115.448 12.7279 117.385 14.3035 117.385 17.8939V26.5468H113.666V18.3071C113.666 16.5765 112.89 15.8016 111.547 15.8016C110.101 15.8016 108.939 16.7315 108.939 18.5654V26.5468H105.219V18.3071C105.219 16.5765 104.419 15.8016 103.101 15.8016C101.655 15.8016 100.493 16.7315 100.493 18.5654V26.5468ZM126.033 26.8309C129.728 26.8309 132.053 25.2037 132.491 22.2849H128.952C128.72 23.4214 127.867 24.1705 126.137 24.1705C124.096 24.1705 122.883 22.879 122.779 20.6318H132.517V19.5986C132.517 14.7684 129.417 12.7279 125.93 12.7279C122.004 12.7279 118.982 15.4917 118.982 19.7536V19.9602C118.982 24.2738 121.952 26.8309 126.033 26.8309ZM122.831 18.333C123.115 16.4215 124.252 15.3109 125.93 15.3109C127.713 15.3109 128.746 16.2924 128.875 18.333H122.831Z" fill="black"/>
</svg>
